<svg xmlns="http://www.w3.org/2000/svg" xmlns:xlink="http://www.w3.org/1999/xlink" width="500" zoomAndPan="magnify" viewBox="0 0 375 374.999991" height="500" preserveAspectRatio="xMidYMid meet" version="1.0"><defs><clipPath id="1c48db8e88"><path d="M 94 230 L 282 230 L 282 374.25 L 94 374.25 Z M 94 230 " clip-rule="nonzero"/></clipPath></defs><path fill="#8dd9dd" d="M 176.121094 180.605469 L 169.074219 182.710938 L 143.757812 190.3125 L 126.714844 172.007812 L 146.914062 160.8125 C 146.914062 160.8125 177.378906 174.464844 178.839844 174.699219 C 180.300781 174.933594 176.121094 180.605469 176.121094 180.605469 " fill-opacity="1" fill-rule="nonzero"/><path fill="#8f7fa3" d="M 120.070312 197.410156 L 109.542969 182.726562 C 105.851562 177.601562 104.792969 171.242188 106.648438 165.292969 C 108.503906 159.335938 113.003906 154.699219 118.992188 152.574219 L 141.371094 144.605469 C 143.828125 143.722656 146.53125 143.273438 149.367188 143.273438 C 153.441406 143.273438 157.53125 144.25 160.875 146.019531 L 207.988281 171.050781 L 276.6875 150.453125 C 276.542969 126.769531 276.414062 110.375 276.414062 110.375 C 276.414062 110.375 274.585938 96.121094 239.867188 96.121094 C 205.152344 96.121094 129.871094 92.832031 129.871094 92.832031 C 129.871094 92.832031 98.625 89.542969 98.625 124.078125 C 98.625 137.390625 98.625 169.453125 98.625 203.839844 L 120.070312 197.410156 " fill-opacity="1" fill-rule="nonzero"/><path fill="#8f7fa3" d="M 241.609375 239.652344 L 202.328125 297.222656 C 198.320312 302.871094 191.824219 306.710938 185.253906 307.429688 L 162.851562 309.804688 C 162.171875 309.878906 161.453125 309.917969 160.734375 309.917969 L 160.730469 309.917969 C 155.585938 309.917969 150.535156 307.890625 146.882812 304.359375 C 142.660156 300.273438 140.476562 294.496094 140.890625 288.503906 L 142.90625 263.054688 L 98.625 273.550781 C 98.625 300.167969 98.625 319.429688 98.625 319.429688 C 98.625 319.429688 94.421875 344.648438 123.292969 344.648438 C 152.160156 344.648438 255.214844 344.648438 255.214844 344.648438 C 255.214844 344.648438 274.949219 346.839844 276.410156 319.792969 C 277.011719 308.6875 277.121094 271.378906 277.039062 231.265625 L 241.609375 239.652344 " fill-opacity="1" fill-rule="nonzero"/><path fill="#2c3d53" d="M 196.394531 67.25 L 178.855469 67.25 C 175.625 67.25 173.007812 69.867188 173.007812 73.09375 C 173.007812 76.324219 175.625 78.941406 178.855469 78.941406 L 196.394531 78.941406 C 199.625 78.941406 202.242188 76.324219 202.242188 73.09375 C 202.242188 69.867188 199.625 67.25 196.394531 67.25 " fill-opacity="1" fill-rule="nonzero"/><path fill="#2c3d53" d="M 199.320312 125.722656 C 199.320312 122.496094 196.699219 119.878906 193.472656 119.878906 L 181.777344 119.878906 C 178.546875 119.878906 175.929688 122.496094 175.929688 125.722656 C 175.929688 128.953125 178.546875 131.574219 181.777344 131.574219 L 193.472656 131.574219 C 196.699219 131.574219 199.320312 128.953125 199.320312 125.722656 " fill-opacity="1" fill-rule="nonzero"/><path fill="#2c3d53" d="M 193.472656 321.621094 C 196.703125 321.621094 199.320312 319.003906 199.320312 315.773438 C 199.320312 312.542969 196.703125 309.925781 193.472656 309.925781 L 181.777344 309.925781 C 178.546875 309.925781 175.933594 312.542969 175.933594 315.773438 C 175.933594 319.003906 178.546875 321.621094 181.777344 321.621094 L 193.472656 321.621094 " fill-opacity="1" fill-rule="nonzero"/><path fill="#2c3d53" d="M 94.070312 117.226562 L 94.070312 205.203125 L 105.765625 201.699219 L 105.765625 117.226562 C 105.765625 107.402344 113.632812 99.410156 123.304688 99.410156 L 251.945312 99.410156 C 261.617188 99.410156 269.484375 107.402344 269.484375 117.226562 L 269.484375 152.609375 L 281.179688 149.101562 L 281.179688 117.226562 C 281.179688 100.957031 268.0625 87.714844 251.945312 87.714844 L 231.476562 87.714844 L 231.476562 17.1875 C 231.476562 7.714844 223.609375 0 213.9375 0 L 161.3125 0 C 151.640625 0 143.769531 7.714844 143.769531 17.1875 L 143.769531 87.714844 L 123.304688 87.714844 C 107.183594 87.714844 94.070312 100.957031 94.070312 117.226562 M 155.464844 17.1875 C 155.464844 14.160156 158.089844 11.695312 161.3125 11.695312 L 213.9375 11.695312 C 217.160156 11.695312 219.785156 14.160156 219.785156 17.1875 L 219.785156 87.714844 L 155.464844 87.714844 L 155.464844 17.1875 " fill-opacity="1" fill-rule="nonzero"/><g clip-path="url(#1c48db8e88)"><path fill="#2c3d53" d="M 269.46875 233.058594 L 269.46875 321.359375 C 269.46875 331.183594 261.605469 339.164062 251.925781 339.164062 L 123.292969 339.164062 C 113.644531 339.164062 105.75 331.183594 105.75 321.359375 L 105.75 271.859375 L 94.054688 274.636719 L 94.054688 321.359375 C 94.054688 336.621094 105.632812 349.222656 120.367188 350.714844 L 120.367188 362.554688 C 120.367188 369.015625 125.628906 374.25 132.0625 374.25 L 143.757812 374.25 C 150.21875 374.25 155.453125 369.015625 155.453125 362.554688 L 155.453125 350.859375 L 219.769531 350.859375 L 219.769531 362.554688 C 219.769531 369.015625 225.03125 374.25 231.460938 374.25 L 243.15625 374.25 C 249.617188 374.25 254.851562 369.015625 254.851562 362.554688 L 254.851562 350.714844 C 269.613281 349.222656 281.164062 336.621094 281.164062 321.359375 L 281.164062 230.28125 L 269.46875 233.058594 M 143.785156 362.554688 L 132.0625 362.554688 L 132.0625 350.859375 L 143.785156 350.859375 L 143.785156 362.554688 M 243.1875 362.554688 L 231.460938 362.554688 L 231.460938 350.859375 L 243.1875 350.859375 L 243.1875 362.554688 " fill-opacity="1" fill-rule="nonzero"/></g><path fill="#d57a41" d="M 243.1875 350.859375 L 243.1875 362.554688 L 231.464844 362.554688 L 231.464844 350.859375 L 243.1875 350.859375 " fill-opacity="1" fill-rule="nonzero"/><path fill="#d57a41" d="M 143.785156 350.859375 L 143.785156 362.554688 L 132.0625 362.554688 L 132.0625 350.859375 L 143.785156 350.859375 " fill-opacity="1" fill-rule="nonzero"/><path fill="#2c3d53" d="M 149.921875 166.6875 L 176.121094 180.601562 L 192.054688 175.824219 L 155.402344 156.351562 C 152.519531 154.824219 148.355469 154.523438 145.292969 155.621094 L 122.902344 163.597656 C 120.417969 164.480469 118.5625 166.367188 117.8125 168.773438 C 117.0625 171.179688 117.515625 173.785156 119.046875 175.914062 L 131.914062 193.859375 L 143.757812 190.308594 L 131.351562 173 L 149.09375 166.675781 C 149.320312 166.632812 149.832031 166.667969 149.921875 166.6875 " fill-opacity="1" fill-rule="nonzero"/><path fill="#a9e2e5" d="M 149.394531 166.65625 C 149.386719 166.65625 149.378906 166.65625 149.371094 166.65625 C 149.265625 166.660156 149.171875 166.671875 149.105469 166.6875 L 131.359375 173.003906 L 134.691406 177.652344 L 149.105469 172.535156 C 149.191406 172.511719 149.335938 172.503906 149.480469 172.503906 C 149.675781 172.503906 149.875 172.519531 149.925781 172.535156 L 169.074219 182.710938 L 176.121094 180.605469 L 169.359375 177.015625 L 149.917969 166.6875 C 149.859375 166.675781 149.617188 166.65625 149.394531 166.65625 " fill-opacity="1" fill-rule="nonzero"/><path fill="#5f7888" d="M 149.480469 166.652344 C 149.445312 166.652344 149.410156 166.652344 149.371094 166.65625 C 149.378906 166.65625 149.386719 166.65625 149.394531 166.65625 C 149.617188 166.65625 149.859375 166.675781 149.921875 166.6875 L 169.359375 177.015625 L 149.925781 166.6875 C 149.875 166.671875 149.679688 166.652344 149.480469 166.652344 " fill-opacity="1" fill-rule="nonzero"/><path fill="#2c3d53" d="M 374.71875 181.277344 C 374.949219 173.355469 366.910156 167.738281 350.859375 164.582031 C 350.480469 164.464844 349.664062 163.941406 349.398438 163.648438 C 342.730469 156.046875 332.910156 152.039062 321.011719 152.039062 C 310.019531 152.039062 300.546875 155.371094 298.851562 156.015625 L 75.726562 222.914062 C 74.671875 223.175781 73.355469 223.320312 71.984375 223.320312 C 67.335938 223.320312 62.015625 221.832031 59.179688 219.785156 L 37.691406 203.175781 C 33.683594 199.816406 26.902344 198.382812 21.875 200.019531 C 21.582031 200.109375 6.757812 207.824219 6.757812 207.824219 C 3.515625 209.054688 1.292969 211.453125 0.679688 214.492188 C 0.0351562 217.648438 1.234375 220.867188 3.980469 223.320312 L 43.421875 261.683594 C 43.507812 261.769531 43.597656 261.828125 43.683594 261.917969 C 48.652344 266.214844 56.636719 268.992188 64.03125 268.992188 C 66.046875 268.992188 67.976562 268.789062 69.734375 268.378906 L 155.832031 247.96875 L 152.554688 289.3125 C 152.382812 291.828125 153.257812 294.253906 155.011719 295.949219 C 156.738281 297.617188 159.222656 298.433594 161.621094 298.171875 L 183.984375 295.804688 C 187.199219 295.453125 190.738281 293.347656 192.667969 290.628906 L 234.503906 229.316406 L 356.648438 200.398438 C 356.796875 200.339844 356.96875 200.3125 357.117188 200.253906 C 373.839844 194.785156 374.832031 184.496094 374.71875 181.277344 M 353.695312 189.054688 L 244.269531 214.988281 L 245.085938 213.820312 C 246.898438 211.128906 246.226562 207.503906 243.535156 205.691406 C 240.875 203.878906 237.25 204.550781 235.410156 207.210938 L 183.195312 283.816406 C 183.050781 283.933594 182.726562 284.136719 182.726562 284.167969 L 164.542969 286.097656 L 168.578125 234.960938 L 177.203125 232.707031 C 180.332031 231.917969 182.203125 228.703125 181.382812 225.574219 C 180.59375 222.445312 177.378906 220.574219 174.25 221.394531 L 161.621094 224.695312 C 159.191406 225.3125 157.4375 227.417969 157.261719 229.902344 L 156.796875 235.71875 L 67.042969 256.976562 C 66.164062 257.179688 65.140625 257.296875 64.03125 257.296875 C 59.558594 257.296875 54.296875 255.570312 51.429688 253.175781 L 14.332031 217.066406 L 25.792969 211.070312 C 25.96875 211.042969 26.199219 211.011719 26.492188 211.011719 C 27.984375 211.011719 29.503906 211.597656 30.148438 212.125 C 30.234375 212.210938 52.191406 229.167969 52.191406 229.167969 C 57.21875 232.765625 64.792969 235.015625 71.984375 235.015625 C 74.351562 235.015625 76.542969 234.753906 78.796875 234.199219 C 78.796875 234.199219 302.710938 167.066406 302.855469 167.007812 C 302.945312 166.980469 311.335938 163.734375 321.011719 163.734375 C 329.578125 163.734375 336.15625 166.308594 340.597656 171.335938 C 342.558594 173.585938 345.746094 175.488281 348.550781 176.046875 C 358.140625 177.945312 362.058594 180.402344 362.964844 181.394531 C 362.933594 181.628906 362.933594 181.746094 363.050781 182.097656 C 362.875 183.589844 360.800781 186.6875 353.695312 189.054688 " fill-opacity="1" fill-rule="nonzero"/><path fill="#8dd9dd" d="M 363.054688 182.097656 C 362.878906 183.585938 360.804688 186.683594 353.699219 189.054688 L 244.269531 214.988281 L 245.089844 213.820312 C 246.902344 211.128906 246.230469 207.503906 243.539062 205.691406 C 240.878906 203.878906 237.253906 204.550781 235.414062 207.210938 L 183.199219 283.816406 C 183.050781 283.933594 182.730469 284.136719 182.730469 284.167969 L 164.542969 286.097656 L 168.578125 234.957031 L 177.203125 232.707031 C 180.332031 231.917969 182.203125 228.699219 181.382812 225.574219 C 180.59375 222.445312 177.378906 220.574219 174.25 221.390625 L 161.621094 224.695312 C 159.195312 225.308594 157.441406 227.414062 157.265625 229.898438 L 156.796875 235.71875 L 67.042969 256.972656 C 66.167969 257.179688 65.144531 257.296875 64.03125 257.296875 C 59.558594 257.296875 54.296875 255.570312 51.433594 253.171875 L 14.332031 217.066406 L 25.792969 211.070312 C 25.96875 211.039062 26.203125 211.011719 26.492188 211.011719 C 27.984375 211.011719 29.503906 211.597656 30.148438 212.125 C 30.234375 212.210938 52.191406 229.167969 52.191406 229.167969 C 57.21875 232.765625 64.792969 235.015625 71.984375 235.015625 C 74.351562 235.015625 76.546875 234.753906 78.796875 234.199219 C 78.796875 234.199219 302.710938 167.066406 302.859375 167.007812 C 302.945312 166.980469 311.335938 163.734375 321.011719 163.734375 C 329.578125 163.734375 336.15625 166.308594 340.601562 171.335938 C 342.558594 173.585938 345.746094 175.484375 348.550781 176.042969 C 358.144531 177.941406 362.0625 180.398438 362.964844 181.394531 C 362.9375 181.628906 362.9375 181.742188 363.054688 182.097656 " fill-opacity="1" fill-rule="nonzero"/><path fill="#2c3d53" d="M 96.867188 59.957031 C 84.242188 50.8125 66.148438 53.15625 56.542969 65.191406 C 51.855469 71.082031 49.828125 78.375 50.835938 85.734375 C 51.859375 93.214844 55.875 99.839844 62.140625 104.382812 C 64.722656 106.253906 68.433594 105.652344 70.304688 103.074219 C 72.199219 100.457031 71.613281 96.800781 68.996094 94.910156 C 65.34375 92.261719 63.007812 88.4375 62.421875 84.148438 C 61.855469 79.984375 63.011719 75.839844 65.683594 72.480469 C 71.449219 65.261719 82.363281 63.890625 90.011719 69.433594 C 92.628906 71.332031 96.285156 70.742188 98.175781 68.125 C 100.070312 65.511719 99.484375 61.855469 96.867188 59.957031 " fill-opacity="1" fill-rule="nonzero"/><path fill="#2c3d53" d="M 30.835938 54.105469 L 41.785156 62.050781 C 44.367188 63.917969 48.085938 63.328125 49.953125 60.746094 C 51.847656 58.128906 51.265625 54.472656 48.652344 52.578125 L 37.699219 44.640625 C 35.082031 42.738281 31.421875 43.328125 29.535156 45.945312 C 27.636719 48.558594 28.21875 52.210938 30.835938 54.105469 " fill-opacity="1" fill-rule="nonzero"/><path fill="#2c3d53" d="M 23.457031 73.402344 L 36.765625 76.761719 C 39.855469 77.535156 43.082031 75.613281 43.863281 72.523438 C 44.652344 69.386719 42.757812 66.210938 39.625 65.417969 L 26.316406 62.0625 C 23.191406 61.28125 20.011719 63.171875 19.21875 66.304688 C 18.429688 69.433594 20.324219 72.613281 23.457031 73.402344 " fill-opacity="1" fill-rule="nonzero"/><path fill="#2c3d53" d="M 43.035156 85.648438 C 42.625 82.445312 39.675781 80.160156 36.492188 80.59375 L 22.867188 82.335938 C 19.664062 82.746094 17.398438 85.675781 17.808594 88.875 C 18.1875 91.828125 20.703125 93.980469 23.601562 93.980469 C 23.847656 93.980469 37.976562 92.1875 37.976562 92.1875 C 41.183594 91.777344 43.445312 88.847656 43.035156 85.648438 " fill-opacity="1" fill-rule="nonzero"/><path fill="#2c3d53" d="M 47.613281 98.050781 C 46.046875 95.226562 42.492188 94.203125 39.664062 95.769531 L 27.792969 102.351562 C 24.96875 103.917969 23.945312 107.476562 25.511719 110.300781 C 27.054688 113.082031 30.6875 114.121094 33.460938 112.582031 L 45.335938 106 C 48.160156 104.433594 49.179688 100.878906 47.613281 98.050781 " fill-opacity="1" fill-rule="nonzero"/><path fill="#2c3d53" d="M 56.832031 107.816406 C 54.3125 105.808594 50.632812 106.214844 48.613281 108.742188 L 40.308594 119.152344 C 38.296875 121.675781 38.710938 125.351562 41.234375 127.371094 C 43.726562 129.359375 47.460938 128.933594 49.449219 126.445312 L 57.753906 116.035156 C 59.765625 113.511719 59.351562 109.835938 56.832031 107.816406 " fill-opacity="1" fill-rule="nonzero"/><path fill="#2c3d53" d="M 114.960938 34.929688 C 112.445312 32.917969 108.761719 33.328125 106.746094 35.851562 L 98.4375 46.265625 C 96.425781 48.789062 96.839844 52.46875 99.363281 54.480469 C 101.859375 56.472656 105.59375 56.042969 107.582031 53.558594 L 115.886719 43.144531 C 117.898438 40.621094 117.484375 36.941406 114.960938 34.929688 " fill-opacity="1" fill-rule="nonzero"/><path fill="#2c3d53" d="M 86.996094 48.800781 C 90.0625 49.675781 93.339844 47.765625 94.175781 44.710938 L 97.640625 32.0625 C 98.496094 28.945312 96.660156 25.730469 93.546875 24.878906 C 90.425781 24.015625 87.214844 25.859375 86.363281 28.972656 C 86.363281 28.972656 82.90625 41.601562 82.898438 41.621094 C 82.042969 44.746094 84.03125 47.953125 86.996094 48.800781 " fill-opacity="1" fill-rule="nonzero"/><path fill="#2c3d53" d="M 66.671875 43.054688 C 67.09375 45.96875 69.59375 48.066406 72.453125 48.066406 C 75.964844 48.066406 78.75 44.863281 78.25 41.378906 L 76.371094 28.402344 C 75.910156 25.203125 72.929688 23.011719 69.75 23.449219 C 66.554688 23.914062 64.335938 26.875 64.796875 30.070312 L 66.671875 43.054688 " fill-opacity="1" fill-rule="nonzero"/><path fill="#2c3d53" d="M 52.277344 50.246094 C 53.941406 52.957031 57.605469 53.824219 60.320312 52.167969 C 63.070312 50.472656 63.929688 46.875 62.238281 44.121094 L 55.289062 32.800781 C 53.601562 30.050781 50 29.191406 47.246094 30.882812 C 44.492188 32.570312 43.632812 36.167969 45.324219 38.921875 L 52.277344 50.246094 " fill-opacity="1" fill-rule="nonzero"/><path fill="#a08db4" d="M 251.925781 99.410156 L 123.304688 99.410156 C 113.632812 99.410156 105.765625 107.402344 105.765625 117.226562 L 105.765625 122.34375 C 106.140625 112.855469 113.882812 105.257812 123.292969 105.257812 L 251.925781 105.257812 C 261.605469 105.257812 269.46875 113.242188 269.46875 123.066406 L 269.46875 117.21875 C 269.46875 107.390625 261.605469 99.410156 251.925781 99.410156 " fill-opacity="1" fill-rule="nonzero"/><path fill="#4a5874" d="M 251.925781 99.410156 L 123.292969 99.410156 C 113.644531 99.410156 105.75 107.390625 105.75 117.21875 L 105.75 123.066406 C 105.75 122.824219 105.753906 122.585938 105.765625 122.34375 L 105.765625 117.226562 C 105.765625 107.402344 113.632812 99.410156 123.304688 99.410156 L 251.925781 99.410156 " fill-opacity="1" fill-rule="nonzero"/><path fill="#5f7888" d="M 363.054688 182.097656 C 363 182.546875 362.773438 183.148438 362.28125 183.832031 C 362.777344 183.148438 363.003906 182.550781 363.054688 182.097656 " fill-opacity="1" fill-rule="nonzero"/><path fill="#a9e2e5" d="M 361.101562 180.066406 C 362.074219 180.621094 362.667969 181.070312 362.964844 181.394531 C 362.679688 181.078125 362.085938 180.613281 361.101562 180.066406 M 321.011719 163.734375 C 311.335938 163.734375 302.945312 166.980469 302.859375 167.007812 C 302.710938 167.066406 78.796875 234.199219 78.796875 234.199219 C 76.542969 234.753906 74.351562 235.015625 71.984375 235.015625 C 64.792969 235.015625 57.21875 232.765625 52.191406 229.167969 C 52.191406 229.167969 30.234375 212.210938 30.148438 212.125 C 29.503906 211.597656 27.984375 211.011719 26.492188 211.011719 C 26.203125 211.011719 25.96875 211.042969 25.792969 211.070312 L 14.332031 217.066406 L 18.25 215.019531 L 22.15625 218.820312 L 25.792969 216.917969 C 25.96875 216.890625 26.203125 216.859375 26.492188 216.859375 C 27.984375 216.859375 29.503906 217.445312 30.148438 217.972656 C 30.234375 218.058594 52.191406 235.015625 52.191406 235.015625 C 57.21875 238.613281 64.792969 240.863281 71.984375 240.863281 C 74.351562 240.863281 76.542969 240.601562 78.796875 240.046875 C 78.796875 240.046875 302.710938 172.914062 302.859375 172.855469 C 302.945312 172.824219 311.335938 169.582031 321.011719 169.582031 C 329.578125 169.582031 336.15625 172.152344 340.601562 177.183594 C 342.558594 179.433594 345.746094 181.335938 348.554688 181.890625 C 350.566406 182.292969 352.332031 182.71875 353.871094 183.152344 C 356.984375 182.113281 359.125 180.910156 360.53125 179.761719 C 358.316406 178.632812 354.542969 177.230469 348.554688 176.042969 C 345.746094 175.488281 342.558594 173.585938 340.601562 171.335938 C 336.15625 166.304688 329.578125 163.734375 321.011719 163.734375 " fill-opacity="1" fill-rule="nonzero"/><path fill="#273e4b" d="M 360.539062 179.757812 C 360.539062 179.757812 360.535156 179.757812 360.53125 179.761719 C 360.734375 179.867188 360.921875 179.96875 361.101562 180.066406 C 360.925781 179.964844 360.738281 179.863281 360.539062 179.757812 " fill-opacity="1" fill-rule="nonzero"/><path fill="#273e4b" d="M 245.835938 208.757812 L 245.820312 208.761719 C 246.140625 209.773438 246.191406 210.871094 245.929688 211.929688 C 246.046875 211.460938 246.105469 210.984375 246.105469 210.507812 C 246.105469 209.914062 246.011719 209.324219 245.835938 208.757812 " fill-opacity="1" fill-rule="nonzero"/><path fill="#68b7b7" d="M 353.867188 183.148438 C 353.808594 183.167969 353.753906 183.191406 353.695312 183.207031 L 245.832031 208.757812 C 246.007812 209.324219 246.101562 209.914062 246.105469 210.507812 C 246.105469 210.984375 246.046875 211.460938 245.929688 211.929688 C 245.769531 212.585938 245.492188 213.226562 245.085938 213.820312 L 244.265625 214.988281 L 353.695312 189.054688 C 358.644531 187.40625 361.152344 185.402344 362.277344 183.835938 C 361.882812 184.378906 361.316406 184.980469 360.539062 185.605469 C 359.0625 184.867188 356.90625 184 353.867188 183.148438 " fill-opacity="1" fill-rule="nonzero"/><path fill="#7fc0bd" d="M 360.53125 179.761719 C 359.125 180.910156 356.988281 182.113281 353.871094 183.148438 C 356.90625 184 359.066406 184.867188 360.539062 185.601562 C 361.320312 184.980469 361.886719 184.378906 362.28125 183.832031 C 362.773438 183.148438 363 182.546875 363.054688 182.097656 C 362.976562 181.863281 362.949219 181.730469 362.949219 181.601562 C 362.949219 181.535156 362.957031 181.472656 362.964844 181.394531 C 362.667969 181.070312 362.074219 180.625 361.097656 180.0625 C 360.925781 179.964844 360.734375 179.867188 360.53125 179.761719 " fill-opacity="1" fill-rule="nonzero"/><path fill="#726784" d="M 269.46875 315.511719 C 269.46875 325.335938 261.601562 333.316406 251.925781 333.316406 L 123.292969 333.316406 C 113.644531 333.316406 105.75 325.335938 105.75 315.511719 L 105.75 321.359375 C 105.75 331.183594 113.644531 339.164062 123.292969 339.164062 L 251.925781 339.164062 C 261.601562 339.164062 269.46875 331.183594 269.46875 321.359375 L 269.46875 315.511719 " fill-opacity="1" fill-rule="nonzero"/><path fill="#956553" d="M 143.785156 356.707031 L 132.0625 356.707031 L 132.0625 362.554688 L 143.785156 362.554688 L 143.785156 356.707031 " fill-opacity="1" fill-rule="nonzero"/><path fill="#956553" d="M 243.1875 356.707031 L 231.464844 356.707031 L 231.464844 362.554688 L 243.1875 362.554688 L 243.1875 356.707031 " fill-opacity="1" fill-rule="nonzero"/><path fill="#273e4b" d="M 175.738281 221.199219 C 175.246094 221.199219 174.746094 221.261719 174.25 221.394531 C 174.746094 221.265625 175.242188 221.203125 175.734375 221.203125 C 177.820312 221.203125 179.773438 222.316406 180.769531 224.140625 C 180.777344 224.128906 180.78125 224.117188 180.789062 224.105469 C 179.757812 222.3125 177.816406 221.199219 175.738281 221.199219 " fill-opacity="1" fill-rule="nonzero"/><path fill="#68b7b7" d="M 175.738281 215.351562 C 175.246094 215.351562 174.746094 215.417969 174.25 215.546875 L 161.617188 218.851562 C 159.191406 219.464844 157.4375 221.566406 157.261719 224.054688 L 156.796875 229.871094 L 67.042969 251.128906 C 66.164062 251.332031 65.140625 251.449219 64.03125 251.449219 C 59.558594 251.449219 54.296875 249.726562 51.429688 247.328125 L 22.15625 218.824219 L 18.25 220.867188 L 14.332031 217.066406 L 51.429688 253.175781 C 54.296875 255.574219 59.558594 257.296875 64.03125 257.296875 C 65.140625 257.296875 66.164062 257.179688 67.042969 256.976562 L 156.796875 235.71875 L 157.261719 229.902344 C 157.4375 227.417969 159.191406 225.3125 161.617188 224.695312 L 174.25 221.394531 C 174.746094 221.261719 175.246094 221.199219 175.734375 221.199219 C 177.816406 221.199219 179.757812 222.316406 180.789062 224.105469 C 181.53125 222.828125 181.789062 221.261719 181.382812 219.726562 C 180.71875 217.09375 178.335938 215.351562 175.738281 215.351562 " fill-opacity="1" fill-rule="nonzero"/><path fill="#7fc0bd" d="M 18.25 215.019531 L 14.332031 217.0625 L 18.25 220.867188 L 22.15625 218.820312 L 18.25 215.019531 " fill-opacity="1" fill-rule="nonzero"/><path fill="#273e4b" d="M 243.539062 205.691406 C 244.296875 206.21875 244.882812 206.859375 245.292969 207.59375 C 245.296875 207.582031 245.300781 207.574219 245.304688 207.570312 C 244.882812 206.839844 244.289062 206.195312 243.539062 205.691406 " fill-opacity="1" fill-rule="nonzero"/><path fill="#68b7b7" d="M 240.246094 198.828125 C 238.386719 198.828125 236.554688 199.710938 235.410156 201.363281 L 183.195312 277.96875 C 183.050781 278.085938 182.726562 278.289062 182.726562 278.320312 L 165.011719 280.191406 L 164.542969 286.097656 L 182.726562 284.167969 C 182.726562 284.136719 183.050781 283.933594 183.195312 283.816406 L 235.410156 207.210938 C 236.554688 205.558594 238.386719 204.675781 240.246094 204.675781 C 241.382812 204.675781 242.53125 205.003906 243.539062 205.691406 C 244.289062 206.195312 244.878906 206.84375 245.304688 207.566406 C 246.835938 204.941406 246.105469 201.5625 243.539062 199.84375 C 242.53125 199.15625 241.382812 198.828125 240.246094 198.828125 " fill-opacity="1" fill-rule="nonzero"/></svg>